<svg xmlns="http://www.w3.org/2000/svg" xmlns:xlink="http://www.w3.org/1999/xlink" width="500" zoomAndPan="magnify" viewBox="0 0 375 374.999991" height="500" preserveAspectRatio="xMidYMid meet" version="1.0"><defs><clipPath id="fb40d98f01"><path d="M 375 187.503906 C 375 291.050781 291.054688 375 187.5 375 C 83.945312 375 0 291.050781 0 187.503906 C 0 83.949219 83.945312 0 187.5 0 C 291.054688 0 375 83.949219 375 187.503906 Z M 375 187.503906 " clip-rule="nonzero"/></clipPath><clipPath id="743d0ae83c"><path d="M 64 99 L 310 99 L 310 222 L 64 222 Z M 64 99 " clip-rule="nonzero"/></clipPath><clipPath id="92d20a36c8"><path d="M 309.777344 37.210938 L 310.679688 337.210938 L 65.429688 337.949219 L 64.527344 37.949219 Z M 309.777344 37.210938 " clip-rule="nonzero"/></clipPath><clipPath id="ef2f6eb5b0"><path d="M 309.777344 37.210938 L 310.679688 337.210938 L 65.429688 337.949219 L 64.527344 37.949219 Z M 309.777344 37.210938 " clip-rule="nonzero"/></clipPath><clipPath id="670f16b0ef"><path d="M 309.777344 37.210938 L 310.679688 337.210938 L 65.429688 337.949219 L 64.527344 37.949219 Z M 309.777344 37.210938 " clip-rule="nonzero"/></clipPath><clipPath id="eef4b8f31a"><path d="M 125 38 L 283 38 L 283 338 L 125 338 Z M 125 38 " clip-rule="nonzero"/></clipPath><clipPath id="eb675ad41d"><path d="M 309.777344 37.210938 L 310.679688 337.210938 L 65.429688 337.949219 L 64.527344 37.949219 Z M 309.777344 37.210938 " clip-rule="nonzero"/></clipPath><clipPath id="ec6378bf1c"><path d="M 309.777344 37.210938 L 310.679688 337.210938 L 65.429688 337.949219 L 64.527344 37.949219 Z M 309.777344 37.210938 " clip-rule="nonzero"/></clipPath><clipPath id="38aaa8bfca"><path d="M 309.777344 37.210938 L 310.679688 337.210938 L 65.429688 337.949219 L 64.527344 37.949219 Z M 309.777344 37.210938 " clip-rule="nonzero"/></clipPath><clipPath id="7ca359ade1"><path d="M 129 101 L 241 101 L 241 219 L 129 219 Z M 129 101 " clip-rule="nonzero"/></clipPath><clipPath id="e16abcbe6a"><path d="M 309.777344 37.210938 L 310.679688 337.210938 L 65.429688 337.949219 L 64.527344 37.949219 Z M 309.777344 37.210938 " clip-rule="nonzero"/></clipPath><clipPath id="14d8866292"><path d="M 309.777344 37.210938 L 310.679688 337.210938 L 65.429688 337.949219 L 64.527344 37.949219 Z M 309.777344 37.210938 " clip-rule="nonzero"/></clipPath><clipPath id="43907a0532"><path d="M 309.777344 37.210938 L 310.679688 337.210938 L 65.429688 337.949219 L 64.527344 37.949219 Z M 309.777344 37.210938 " clip-rule="nonzero"/></clipPath><clipPath id="e7a6dac7df"><path d="M 124 101 L 259 101 L 259 220 L 124 220 Z M 124 101 " clip-rule="nonzero"/></clipPath><clipPath id="6c427a0314"><path d="M 309.777344 37.210938 L 310.679688 337.210938 L 65.429688 337.949219 L 64.527344 37.949219 Z M 309.777344 37.210938 " clip-rule="nonzero"/></clipPath><clipPath id="453b65dbfd"><path d="M 309.777344 37.210938 L 310.679688 337.210938 L 65.429688 337.949219 L 64.527344 37.949219 Z M 309.777344 37.210938 " clip-rule="nonzero"/></clipPath><clipPath id="4e235a1f68"><path d="M 309.777344 37.210938 L 310.679688 337.210938 L 65.429688 337.949219 L 64.527344 37.949219 Z M 309.777344 37.210938 " clip-rule="nonzero"/></clipPath><clipPath id="5f2d6dbc1b"><path d="M 128 97 L 253 97 L 253 224 L 128 224 Z M 128 97 " clip-rule="nonzero"/></clipPath><clipPath id="e13b237b71"><path d="M 309.777344 37.210938 L 310.679688 337.210938 L 65.429688 337.949219 L 64.527344 37.949219 Z M 309.777344 37.210938 " clip-rule="nonzero"/></clipPath><clipPath id="9303dd9808"><path d="M 309.777344 37.210938 L 310.679688 337.210938 L 65.429688 337.949219 L 64.527344 37.949219 Z M 309.777344 37.210938 " clip-rule="nonzero"/></clipPath><clipPath id="5aba0ccde6"><path d="M 309.777344 37.210938 L 310.679688 337.210938 L 65.429688 337.949219 L 64.527344 37.949219 Z M 309.777344 37.210938 " clip-rule="nonzero"/></clipPath></defs><g clip-path="url(#fb40d98f01)"><rect x="-37.5" width="450" fill="#ffffff" y="-37.499999" height="449.999989" fill-opacity="1"/></g><g clip-path="url(#743d0ae83c)"><g clip-path="url(#92d20a36c8)"><g clip-path="url(#ef2f6eb5b0)"><g clip-path="url(#670f16b0ef)"><path fill="#068276" d="M 253.726562 204.433594 L 265.363281 204.398438 C 277.492188 204.359375 289.242188 199.28125 297.59375 190.472656 C 305.90625 181.695312 310.160156 170.261719 309.5625 158.28125 C 308.398438 134.832031 289.105469 116.515625 265.644531 116.589844 L 248.023438 116.640625 C 248.023438 116.640625 221.023438 119.171875 220.320312 102.984375 C 220.683594 116.46875 231.765625 127.304688 245.304688 127.265625 L 265.675781 127.203125 C 283.464844 127.148438 298.089844 141.03125 298.976562 158.808594 C 299.425781 167.867188 296.203125 176.511719 289.902344 183.167969 C 283.539062 189.886719 274.578125 193.753906 265.328125 193.78125 L 253.695312 193.816406 C 253.492188 193.816406 253.289062 193.820312 253.097656 193.828125 C 236.9375 194.535156 239.460938 221.566406 239.460938 221.566406 L 239.453125 218.8125 C 239.429688 210.90625 245.832031 204.457031 253.726562 204.433594 M 143.226562 99.941406 C 143.226562 99.941406 145.570312 125.09375 131.242188 127.503906 C 130.5 127.574219 129.75 127.613281 128.988281 127.613281 L 109.164062 127.675781 C 99.910156 127.703125 90.957031 131.574219 84.589844 138.292969 C 78.285156 144.941406 75.066406 153.601562 75.519531 162.648438 C 76.398438 180.425781 91.027344 194.308594 108.816406 194.253906 L 129.1875 194.191406 C 142.722656 194.152344 153.808594 204.988281 154.167969 218.472656 C 153.464844 202.285156 126.46875 204.816406 126.46875 204.816406 L 108.847656 204.867188 C 85.386719 204.9375 66.09375 186.625 64.929688 163.175781 C 64.898438 162.480469 64.878906 161.785156 64.875 161.097656 C 64.84375 149.878906 69.070312 139.257812 76.902344 130.988281 C 85.25 122.171875 96.996094 117.097656 109.132812 117.058594 L 128.957031 117 C 136.847656 116.976562 143.253906 110.527344 143.230469 102.621094 L 143.222656 99.941406 L 143.226562 99.941406 " fill-opacity="1" fill-rule="nonzero"/></g></g></g></g><g clip-path="url(#eef4b8f31a)"><g clip-path="url(#eb675ad41d)"><g clip-path="url(#ec6378bf1c)"><g clip-path="url(#38aaa8bfca)"><path fill="#00a79d" d="M 148.109375 281.269531 C 141.839844 281.289062 136.738281 276.214844 136.71875 269.933594 C 136.699219 263.652344 141.769531 258.546875 148.039062 258.527344 C 154.3125 258.507812 159.414062 263.582031 159.433594 269.863281 C 159.453125 276.144531 154.378906 281.25 148.109375 281.269531 M 153.828125 102.585938 C 153.867188 115.585938 143.925781 126.324219 131.242188 127.503906 C 145.570312 125.09375 143.226562 99.941406 143.226562 99.941406 L 143.222656 99.941406 L 143.171875 82.769531 C 143.132812 70.617188 148.132812 58.820312 156.886719 50.410156 C 165.597656 42.03125 176.984375 37.703125 188.953125 38.226562 C 212.375 39.253906 230.777344 58.460938 230.847656 81.957031 L 230.910156 102.355469 C 230.933594 110.261719 237.375 116.671875 245.273438 116.648438 L 248.023438 116.640625 C 248.023438 116.640625 221.023438 119.171875 220.320312 102.984375 C 220.320312 102.792969 220.3125 102.589844 220.3125 102.386719 L 220.25 81.988281 C 220.195312 64.171875 206.25 49.609375 188.488281 48.832031 C 179.445312 48.4375 170.828125 51.714844 164.222656 58.0625 C 157.554688 64.480469 153.738281 73.46875 153.765625 82.738281 L 153.828125 102.585938 M 217.628906 337.378906 L 214.960938 337.386719 C 212.207031 337.394531 209.945312 335.308594 209.660156 332.632812 C 203.117188 330.566406 197.300781 326.453125 193.195312 320.824219 C 189.125 315.253906 186.957031 308.535156 186.9375 301.730469 C 186.929688 299.617188 187.132812 297.488281 187.542969 295.382812 C 189.039062 287.820312 190.886719 280.957031 193.074219 274.808594 C 192.066406 273.8125 191.488281 272.445312 191.484375 271.03125 C 191.480469 270.355469 191.613281 269.660156 191.890625 268.992188 C 194.804688 261.914062 198.253906 255.835938 202.125 250.910156 C 202.171875 250.851562 202.222656 250.789062 202.273438 250.730469 C 209.417969 242.4375 218.71875 237.269531 228.90625 235.835938 L 228.855469 218.84375 C 228.8125 205.285156 239.632812 194.1875 253.097656 193.828125 C 236.9375 194.535156 239.460938 221.566406 239.460938 221.566406 L 239.503906 235.6875 C 250.058594 236.871094 259.738281 242.03125 267.148438 250.535156 C 267.199219 250.59375 267.25 250.652344 267.300781 250.714844 C 271.199219 255.613281 274.683594 261.671875 277.644531 268.734375 C 278.503906 270.785156 277.976562 273.074219 276.492188 274.546875 C 278.710938 280.695312 280.605469 287.542969 282.148438 295.097656 C 283.945312 303.957031 281.945312 313.242188 276.648438 320.574219 C 272.421875 326.4375 266.359375 330.679688 259.53125 332.703125 C 259.167969 335.277344 256.964844 337.261719 254.296875 337.269531 L 251.621094 337.277344 C 248.6875 337.285156 246.308594 334.910156 246.296875 331.972656 C 246.289062 329.039062 248.65625 326.652344 251.589844 326.644531 L 254.265625 326.636719 C 256.085938 326.628906 257.6875 327.539062 258.648438 328.9375 C 264.582031 327.128906 269.84375 323.417969 273.523438 318.316406 C 278.195312 311.851562 279.960938 303.667969 278.367188 295.875 C 276.878906 288.582031 275.066406 281.988281 272.949219 276.082031 C 270.808594 276.164062 268.75 274.933594 267.871094 272.84375 C 265.308594 266.734375 262.355469 261.546875 259.089844 257.425781 C 252.617188 250.054688 243.957031 246.007812 234.695312 246.035156 C 225.433594 246.0625 216.800781 250.164062 210.371094 257.574219 C 207.132812 261.714844 204.210938 266.917969 201.683594 273.042969 C 200.820312 275.144531 198.761719 276.382812 196.625 276.320312 C 194.539062 282.230469 192.765625 288.835938 191.328125 296.136719 C 189.78125 303.941406 191.597656 312.113281 196.304688 318.546875 C 199.898438 323.464844 204.964844 327.074219 210.679688 328.910156 C 211.644531 327.605469 213.183594 326.757812 214.929688 326.753906 L 217.597656 326.746094 C 220.53125 326.738281 222.917969 329.109375 222.925781 332.042969 C 222.9375 334.980469 220.5625 337.371094 217.628906 337.378906 M 132.710938 269.957031 C 132.6875 261.328125 139.671875 254.292969 148.285156 254.265625 C 156.902344 254.238281 163.929688 261.234375 163.957031 269.863281 C 163.980469 278.488281 156.996094 285.527344 148.378906 285.554688 C 139.765625 285.578125 132.738281 278.582031 132.710938 269.957031 M 171.300781 269.839844 C 171.269531 259.234375 164.039062 250.3125 154.265625 247.691406 L 154.179688 219.066406 C 154.179688 218.863281 154.171875 218.664062 154.171875 218.46875 C 153.464844 202.28125 126.46875 204.8125 126.46875 204.8125 L 129.21875 204.804688 C 137.113281 204.78125 143.554688 211.191406 143.578125 219.097656 L 143.664062 247.386719 C 133.207031 249.558594 125.332031 258.871094 125.367188 269.976562 C 125.40625 282.660156 135.738281 292.945312 148.402344 292.90625 C 161.066406 292.867188 171.339844 282.523438 171.300781 269.839844 " fill-opacity="1" fill-rule="nonzero"/></g></g></g></g><g clip-path="url(#7ca359ade1)"><g clip-path="url(#e16abcbe6a)"><g clip-path="url(#14d8866292)"><g clip-path="url(#43907a0532)"><path fill="#cccccc" d="M 129.644531 204.808594 C 131.007812 204.84375 132.332031 205.074219 133.578125 205.46875 C 133.542969 205.460938 133.5 205.453125 133.464844 205.441406 L 133.457031 205.4375 C 132.28125 205.082031 131.046875 204.867188 129.773438 204.820312 C 129.730469 204.816406 129.6875 204.8125 129.644531 204.808594 M 142.496094 107.199219 C 142.527344 107.058594 142.5625 106.921875 142.59375 106.78125 L 142.601562 106.769531 C 142.960938 105.597656 143.171875 104.359375 143.214844 103.082031 C 143.21875 103.050781 143.222656 103.019531 143.222656 102.988281 C 143.191406 104.457031 142.941406 105.871094 142.496094 107.199219 M 143.324219 101.617188 C 143.339844 102.039062 143.355469 102.527344 143.363281 103.078125 C 143.355469 102.53125 143.339844 102.039062 143.324219 101.617188 M 239.457031 218.480469 C 239.484375 217.042969 239.722656 215.65625 240.144531 214.351562 C 240.128906 214.425781 240.113281 214.496094 240.097656 214.5625 L 240.089844 214.574219 C 239.730469 215.746094 239.519531 216.980469 239.476562 218.261719 C 239.46875 218.332031 239.460938 218.402344 239.457031 218.480469 " fill-opacity="1" fill-rule="nonzero"/></g></g></g></g><g clip-path="url(#e7a6dac7df)"><g clip-path="url(#6c427a0314)"><g clip-path="url(#453b65dbfd)"><g clip-path="url(#4e235a1f68)"><path fill="#05685e" d="M 124.375 127.527344 C 133.304688 124.175781 140.160156 116.578125 142.496094 107.199219 C 142.941406 105.871094 143.191406 104.457031 143.222656 102.988281 C 143.269531 102.535156 143.304688 102.074219 143.324219 101.617188 C 143.339844 102.039062 143.355469 102.53125 143.363281 103.078125 C 143.363281 103.226562 143.367188 103.375 143.367188 103.53125 C 143.390625 110.609375 142.128906 125.574219 131.242188 127.40625 C 130.5 127.472656 129.746094 127.511719 128.988281 127.511719 L 124.375 127.527344 M 132.496094 204.707031 C 140.082031 204.988281 152.410156 206.976562 154.0625 216.816406 C 154.097656 217.214844 154.125 217.617188 154.144531 218.023438 C 153.328125 207.164062 140.386719 205.007812 132.496094 204.707031 M 220.339844 103.265625 C 221.105469 115.433594 236.949219 116.804688 244.320312 116.785156 C 244.878906 116.785156 245.394531 116.773438 245.847656 116.757812 C 245.972656 116.765625 246.09375 116.773438 246.21875 116.777344 C 240.492188 117 222.449219 116.726562 220.429688 104.675781 C 220.386719 104.210938 220.355469 103.742188 220.339844 103.265625 M 239.324219 217.8125 C 239.320312 215.855469 239.410156 213.300781 239.777344 210.585938 C 240.789062 203.136719 243.871094 194.527344 252.636719 193.855469 C 252.988281 193.839844 253.351562 193.832031 253.707031 193.832031 L 258.316406 193.816406 C 249.324219 197.191406 242.429688 204.878906 240.144531 214.351562 C 239.722656 215.65625 239.484375 217.042969 239.457031 218.480469 C 239.414062 218.90625 239.382812 219.332031 239.367188 219.761719 C 239.34375 219.214844 239.328125 218.558594 239.324219 217.8125 " fill-opacity="1" fill-rule="nonzero"/></g></g></g></g><g clip-path="url(#5f2d6dbc1b)"><g clip-path="url(#e13b237b71)"><g clip-path="url(#9303dd9808)"><g clip-path="url(#5aba0ccde6)"><path fill="#00867e" d="M 128.273438 204.710938 C 129.324219 204.671875 130.789062 204.644531 132.496094 204.707031 C 140.386719 205.007812 153.328125 207.164062 154.144531 218.023438 C 154.160156 218.375 154.167969 218.71875 154.167969 219.074219 L 154.183594 223.691406 C 150.800781 214.648438 143.085938 207.730469 133.578125 205.46875 C 132.332031 205.074219 131.007812 204.84375 129.644531 204.808594 C 129.1875 204.761719 128.730469 204.730469 128.273438 204.710938 M 143.324219 101.617188 C 143.324219 101.605469 143.324219 101.59375 143.328125 101.582031 C 143.34375 102.015625 143.359375 102.515625 143.363281 103.078125 C 143.355469 102.527344 143.339844 102.039062 143.324219 101.617188 M 220.320312 102.417969 L 220.304688 97.800781 C 223.703125 106.875 231.46875 113.8125 241.027344 116.046875 L 241.035156 116.050781 C 242.207031 116.410156 243.441406 116.621094 244.71875 116.667969 C 245.09375 116.707031 245.46875 116.738281 245.847656 116.757812 C 245.394531 116.773438 244.878906 116.785156 244.320312 116.785156 C 236.949219 116.804688 221.105469 115.433594 220.339844 103.265625 C 220.328125 102.984375 220.320312 102.703125 220.320312 102.417969 M 239.777344 210.585938 C 240.734375 203.46875 243.574219 195.265625 251.453125 193.9375 C 251.84375 193.902344 252.238281 193.875 252.636719 193.855469 C 243.871094 194.527344 240.789062 203.136719 239.777344 210.585938 " fill-opacity="1" fill-rule="nonzero"/></g></g></g></g></svg>